<svg width="13" height="14" viewBox="0 0 13 14" fill="none" xmlns="http://www.w3.org/2000/svg">
<path d="M12.5411 6.30932C12.4457 6.20935 12.3321 6.12999 12.207 6.07584C12.0818 6.02169 11.9476 5.9938 11.8121 5.9938C11.6765 5.9938 11.5423 6.02169 11.4172 6.07584C11.292 6.12999 11.1785 6.20935 11.083 6.30932L7.70469 9.82932V1.73332C7.70469 1.45043 7.59651 1.17911 7.40394 0.979076C7.21137 0.779037 6.95018 0.666656 6.67785 0.666656C6.40551 0.666656 6.14433 0.779037 5.95176 0.979076C5.75919 1.17911 5.651 1.45043 5.651 1.73332V9.82932L2.27268 6.30932C2.07932 6.10847 1.81707 5.99563 1.54362 5.99563C1.27017 5.99563 1.00792 6.10847 0.81456 6.30932C0.621201 6.51018 0.512573 6.7826 0.512573 7.06666C0.512573 7.35071 0.621201 7.62313 0.81456 7.82399L5.94879 13.1573C6.04644 13.2544 6.1616 13.3306 6.28765 13.3813C6.41056 13.4378 6.54346 13.4669 6.67785 13.4669C6.81223 13.4669 6.94514 13.4378 7.06805 13.3813C7.1941 13.3306 7.30925 13.2544 7.40691 13.1573L12.5411 7.82399C12.6374 7.72483 12.7138 7.60685 12.7659 7.47687C12.818 7.34689 12.8449 7.20747 12.8449 7.06666C12.8449 6.92584 12.818 6.78642 12.7659 6.65644C12.7138 6.52646 12.6374 6.40848 12.5411 6.30932Z" fill="#0FA958"/>
</svg>
