<svg width="25" height="25" viewBox="0 0 25 25" fill="none" xmlns="http://www.w3.org/2000/svg">
<path d="M8.33331 8.03126L18.75 12.5L8.33331 16.9688V13.4896L15.7708 12.5L8.33331 11.5104V8.03126ZM12.5 2.08334C13.8679 2.08334 15.2225 2.35278 16.4863 2.87626C17.7501 3.39975 18.8984 4.16704 19.8657 5.13431C20.8329 6.10159 21.6002 7.24992 22.1237 8.51372C22.6472 9.77753 22.9166 11.1321 22.9166 12.5C22.9166 15.2627 21.8192 17.9122 19.8657 19.8657C17.9122 21.8192 15.2626 22.9167 12.5 22.9167C11.132 22.9167 9.7775 22.6472 8.51369 22.1238C7.24988 21.6003 6.10156 20.833 5.13428 19.8657C3.18078 17.9122 2.08331 15.2627 2.08331 12.5C2.08331 9.73734 3.18078 7.08782 5.13428 5.13431C7.08779 3.18081 9.73731 2.08334 12.5 2.08334ZM12.5 4.16668C10.2898 4.16668 8.17023 5.04465 6.60742 6.60745C5.04462 8.17026 4.16665 10.2899 4.16665 12.5C4.16665 14.7101 5.04462 16.8298 6.60742 18.3926C8.17023 19.9554 10.2898 20.8333 12.5 20.8333C14.7101 20.8333 16.8297 19.9554 18.3925 18.3926C19.9553 16.8298 20.8333 14.7101 20.8333 12.5C20.8333 10.2899 19.9553 8.17026 18.3925 6.60745C16.8297 5.04465 14.7101 4.16668 12.5 4.16668Z" fill="white"/>
</svg>
