
<svg xmlns="http://www.w3.org/2000/svg" width="40" height="40" viewBox="0 0 14 14"><rect width="13" height="5" x=".5" y=".5" fill="none" stroke="#40c95b" stroke-linecap="round" stroke-linejoin="round" rx="1"/><path fill="#40c95b" d="M3.25 2.25A.75.75 0 1 0 4 3a.76.76 0 0 0-.75-.75Z"/><path fill="none" stroke="#40c95b" stroke-linecap="round" stroke-linejoin="round" d="M6 3h2M1.5 5.5a1 1 0 0 0-1 1v3a1 1 0 0 0 1 1h11a1 1 0 0 0 1-1v-3a1 1 0 0 0-1-1"/><path fill="#40c95b" d="M3.25 7.25A.75.75 0 1 0 4 8a.76.76 0 0 0-.75-.75Z"/><path fill="none" stroke="#40c95b" stroke-linecap="round" stroke-linejoin="round" d="M6 8h2m-1 2.5v3m-5 0h10"/></svg>
