<svg width="55" height="55" viewBox="0 0 55 55" fill="none" xmlns="http://www.w3.org/2000/svg">
<path d="M50.123 2.07539H4.88124C3.3316 2.07539 2.07538 3.33162 2.07538 4.88125V50.1231C2.07538 51.6727 3.3316 52.9289 4.88124 52.9289H50.123C51.6727 52.9289 52.9289 51.6727 52.9289 50.1231V4.88125C52.9289 3.33162 51.6727 2.07539 50.123 2.07539Z" fill="#3D5A98"/>
<path d="M37.1594 52.9246V33.232H43.768L44.7563 25.5578H37.1594V20.6594C37.1594 18.4379 37.7781 16.9211 40.9621 16.9211H45.027V10.0461C43.0586 9.84095 41.0806 9.74341 39.1016 9.75391C33.2492 9.75391 29.2188 13.3203 29.2188 19.8988V25.5578H22.6102V33.232H29.2188V52.9246H37.1594Z" fill="white"/>
</svg>
