<svg width="55" height="56" viewBox="0 0 55 56" fill="none" xmlns="http://www.w3.org/2000/svg">
<path d="M49.1071 0.928574H5.89286C2.63951 0.928574 0 3.56808 0 6.82143V50.0357C0 53.2891 2.63951 55.9286 5.89286 55.9286H49.1071C52.3605 55.9286 55 53.2891 55 50.0357V6.82143C55 3.56808 52.3605 0.928574 49.1071 0.928574ZM34.0435 48.0346C33.0123 48.2188 32.6317 47.5804 32.6317 47.0525C32.6317 46.3895 32.6562 43.0011 32.6562 40.2634C32.6562 38.3482 32.0179 37.1328 31.269 36.4944C35.8114 35.9911 40.5993 35.365 40.5993 27.5201C40.5993 25.2857 39.8013 24.1685 38.5 22.7321C38.7087 22.2042 39.4085 20.0313 38.2913 17.2076C36.5848 16.6797 32.6808 19.4051 32.6808 19.4051C31.0603 18.9509 29.3047 18.7176 27.5737 18.7176C25.8426 18.7176 24.0871 18.9509 22.4665 19.4051C22.4665 19.4051 18.5625 16.6797 16.856 17.2076C15.7388 20.019 16.4263 22.192 16.6473 22.7321C15.346 24.1685 14.7321 25.2857 14.7321 27.5201C14.7321 35.3281 19.3114 35.9911 23.8538 36.4944C23.2645 37.0223 22.7366 37.9308 22.5525 39.2321C21.3862 39.76 18.4029 40.6685 16.6228 37.5257C15.5056 35.5859 13.4922 35.4263 13.4922 35.4263C11.5033 35.4018 13.3571 36.6786 13.3571 36.6786C14.683 37.2924 15.6161 39.6496 15.6161 39.6496C16.8069 43.2958 22.5033 42.0681 22.5033 42.0681C22.5033 43.7746 22.5279 46.5491 22.5279 47.0525C22.5279 47.5804 22.1596 48.2188 21.1161 48.0346C13.0134 45.3214 7.34152 37.6116 7.34152 28.6004C7.34152 17.3304 15.9598 8.77344 27.2299 8.77344C38.5 8.77344 47.6339 17.3304 47.6339 28.6004C47.6462 37.6116 42.1462 45.3337 34.0435 48.0346ZM22 40.5335C21.7667 40.5826 21.5458 40.4844 21.5212 40.3248C21.4967 40.1406 21.6562 39.981 21.8895 39.9319C22.1228 39.9074 22.3438 40.0056 22.3683 40.1652C22.4051 40.3248 22.2455 40.4844 22 40.5335ZM20.8337 40.423C20.8337 40.5826 20.6496 40.7176 20.404 40.7176C20.1339 40.7422 19.9498 40.6071 19.9498 40.423C19.9498 40.2634 20.1339 40.1283 20.3795 40.1283C20.6127 40.1038 20.8337 40.2388 20.8337 40.423ZM19.1518 40.2879C19.1027 40.4475 18.8571 40.5212 18.6484 40.4475C18.4152 40.3984 18.2556 40.2143 18.3047 40.0547C18.3538 39.8951 18.5993 39.8214 18.808 39.8705C19.0536 39.9442 19.2132 40.1284 19.1518 40.2879ZM17.6417 39.625C17.5312 39.76 17.298 39.7355 17.1138 39.5513C16.9297 39.3917 16.8806 39.1585 17.0033 39.048C17.1138 38.9129 17.3471 38.9375 17.5312 39.1217C17.6908 39.2813 17.7522 39.5268 17.6417 39.625ZM16.5246 38.5078C16.4141 38.5815 16.2054 38.5078 16.0703 38.3237C15.9353 38.1395 15.9353 37.9308 16.0703 37.8449C16.2054 37.7344 16.4141 37.8203 16.5246 38.0045C16.6596 38.1886 16.6596 38.4096 16.5246 38.5078ZM15.7266 37.317C15.6161 37.4275 15.4319 37.3661 15.2969 37.2433C15.1618 37.0837 15.1373 36.8996 15.2478 36.8136C15.3583 36.7031 15.5424 36.7645 15.6775 36.8873C15.8125 37.0469 15.8371 37.231 15.7266 37.317ZM14.904 36.4085C14.8549 36.519 14.6953 36.5435 14.5603 36.4576C14.4007 36.3839 14.327 36.2489 14.3761 36.1384C14.4252 36.0647 14.5603 36.0279 14.7199 36.0893C14.8795 36.1752 14.9531 36.3103 14.904 36.4085Z" fill="black"/>
</svg>
