<svg width="40" height="40" viewBox="0 0 40 40" fill="none" xmlns="http://www.w3.org/2000/svg">
<path d="M10 10C10 9.11595 10.3512 8.2681 10.9763 7.64298C11.6014 7.01786 12.4493 6.66667 13.3333 6.66667C13.7754 6.66667 14.1993 6.49107 14.5119 6.17851C14.8244 5.86595 15 5.44203 15 5C15 4.55798 14.8244 4.13405 14.5119 3.82149C14.1993 3.50893 13.7754 3.33334 13.3333 3.33334C11.5652 3.33334 9.86954 4.03571 8.61929 5.28596C7.36905 6.5362 6.66667 8.23189 6.66667 10V15C6.66667 15.8841 6.31548 16.7319 5.69036 17.357C5.06524 17.9821 4.21739 18.3333 3.33334 18.3333C2.89131 18.3333 2.46739 18.5089 2.15483 18.8215C1.84227 19.1341 1.66667 19.558 1.66667 20C1.66667 20.442 1.84227 20.866 2.15483 21.1785C2.46739 21.4911 2.89131 21.6667 3.33334 21.6667C4.21739 21.6667 5.06524 22.0179 5.69036 22.643C6.31548 23.2681 6.66667 24.1159 6.66667 25V30C6.66667 31.7681 7.36905 33.4638 8.61929 34.714C9.86954 35.9643 11.5652 36.6667 13.3333 36.6667C13.7754 36.6667 14.1993 36.4911 14.5119 36.1785C14.8244 35.866 15 35.442 15 35C15 34.558 14.8244 34.134 14.5119 33.8215C14.1993 33.5089 13.7754 33.3333 13.3333 33.3333C12.4493 33.3333 11.6014 32.9821 10.9763 32.357C10.3512 31.7319 10 30.8841 10 30V25C9.99465 24.0509 9.78669 23.1139 9.39005 22.2516C8.9934 21.3893 8.41721 20.6217 7.70001 20C8.41721 19.3783 8.9934 18.6107 9.39005 17.7484C9.78669 16.8861 9.99465 15.9491 10 15V10ZM36.6667 18.3333C35.7826 18.3333 34.9348 17.9821 34.3097 17.357C33.6845 16.7319 33.3333 15.8841 33.3333 15V10C33.3333 8.23189 32.631 6.5362 31.3807 5.28596C30.1305 4.03571 28.4348 3.33334 26.6667 3.33334C26.2246 3.33334 25.8007 3.50893 25.4882 3.82149C25.1756 4.13405 25 4.55798 25 5C25 5.44203 25.1756 5.86595 25.4882 6.17851C25.8007 6.49107 26.2246 6.66667 26.6667 6.66667C27.5507 6.66667 28.3986 7.01786 29.0237 7.64298C29.6488 8.2681 30 9.11595 30 10V15C30.0054 15.9491 30.2133 16.8861 30.61 17.7484C31.0066 18.6107 31.5828 19.3783 32.3 20C31.5828 20.6217 31.0066 21.3893 30.61 22.2516C30.2133 23.1139 30.0054 24.0509 30 25V30C30 30.8841 29.6488 31.7319 29.0237 32.357C28.3986 32.9821 27.5507 33.3333 26.6667 33.3333C26.2246 33.3333 25.8007 33.5089 25.4882 33.8215C25.1756 34.134 25 34.558 25 35C25 35.442 25.1756 35.866 25.4882 36.1785C25.8007 36.4911 26.2246 36.6667 26.6667 36.6667C28.4348 36.6667 30.1305 35.9643 31.3807 34.714C32.631 33.4638 33.3333 31.7681 33.3333 30V25C33.3333 24.1159 33.6845 23.2681 34.3097 22.643C34.9348 22.0179 35.7826 21.6667 36.6667 21.6667C37.1087 21.6667 37.5326 21.4911 37.8452 21.1785C38.1577 20.866 38.3333 20.442 38.3333 20C38.3333 19.558 38.1577 19.1341 37.8452 18.8215C37.5326 18.5089 37.1087 18.3333 36.6667 18.3333Z" fill="#26AB33"/>
</svg>
