<svg width="55" height="55" viewBox="0 0 55 55" fill="none" xmlns="http://www.w3.org/2000/svg">
<path d="M49.8438 1.28906H5.15625C4.14232 1.27874 3.16571 1.67107 2.44071 2.37997C1.7157 3.08886 1.30153 4.05641 1.28906 5.07031V49.9383C1.30378 50.9507 1.71895 51.916 2.44371 52.6231C3.16846 53.3301 4.14379 53.7213 5.15625 53.7109H49.8438C50.8577 53.719 51.8337 53.3253 52.5583 52.616C53.283 51.9067 53.6973 50.9393 53.7109 49.9254V5.05742C53.6929 4.04649 53.2765 3.08355 52.5523 2.37792C51.8282 1.67228 50.8548 1.28098 49.8438 1.28906Z" fill="#0076B2"/>
<path d="M9.04923 20.9387H16.8309V45.9766H9.04923V20.9387ZM12.9422 8.47773C13.8347 8.47773 14.7072 8.74245 15.4492 9.23839C16.1913 9.73434 16.7695 10.4392 17.1109 11.2639C17.4523 12.0885 17.5413 12.9959 17.3669 13.8712C17.1925 14.7465 16.7624 15.5504 16.1309 16.1812C15.4995 16.812 14.6952 17.2414 13.8198 17.415C12.9443 17.5886 12.037 17.4986 11.2127 17.1565C10.3883 16.8144 9.68399 16.2354 9.18875 15.4929C8.69352 14.7504 8.42963 13.8777 8.43048 12.9852C8.43162 11.7893 8.90746 10.6428 9.75345 9.79767C10.5994 8.95248 11.7464 8.47773 12.9422 8.47773ZM21.7121 20.9387H29.1715V24.3762H29.2746C30.3145 22.4082 32.8496 20.3328 36.6352 20.3328C44.5156 20.3156 45.9766 25.502 45.9766 32.2266V45.9766H38.1949V33.7949C38.1949 30.8945 38.1434 27.1605 34.1516 27.1605C30.1598 27.1605 29.4809 30.323 29.4809 33.6059V45.9766H21.7121V20.9387Z" fill="white"/>
</svg>
