<svg width="21" height="30" viewBox="0 0 21 30" fill="none" xmlns="http://www.w3.org/2000/svg">
<path d="M1.41779 11C1.41779 8.52464 2.36441 6.15067 4.0494 4.40033C5.7344 2.64999 8.01974 1.66666 10.4027 1.66666C12.7856 1.66666 15.071 2.64999 16.756 4.40033C18.441 6.15067 19.3876 8.52464 19.3876 11V19C19.3876 20.2257 19.1552 21.4393 18.7037 22.5717C18.2521 23.7041 17.5903 24.733 16.756 25.5997C15.9216 26.4663 14.9312 27.1538 13.8411 27.6229C12.751 28.0919 11.5826 28.3333 10.4027 28.3333C9.22277 28.3333 8.05441 28.0919 6.96431 27.6229C5.87421 27.1538 4.88373 26.4663 4.0494 25.5997C3.21508 24.733 2.55325 23.7041 2.10172 22.5717C1.65019 21.4393 1.41779 20.2257 1.41779 19V11Z" stroke="#2C823D" stroke-width="1.5"/>
<path d="M8.47736 10.3333C8.47736 9.80288 8.6802 9.29417 9.04127 8.9191C9.40234 8.54403 9.89206 8.33331 10.4027 8.33331C10.9133 8.33331 11.403 8.54403 11.7641 8.9191C12.1252 9.29417 12.328 9.80288 12.328 10.3333V13C12.328 13.5304 12.1252 14.0391 11.7641 14.4142C11.403 14.7893 10.9133 15 10.4027 15C9.89206 15 9.40234 14.7893 9.04127 14.4142C8.6802 14.0391 8.47736 13.5304 8.47736 13V10.3333Z" stroke="#2C823D" stroke-width="1.5"/>
<path opacity="0.5" d="M10.4027 1.66666V8.33332" stroke="#2C823D" stroke-width="1.5" stroke-linecap="round"/>
</svg>
