<svg width="55" height="39" viewBox="0 0 55 39" fill="none" xmlns="http://www.w3.org/2000/svg">
<g clip-path="url(#clip0_16_64)">
<path d="M53.7853 6.03174C53.4698 4.8659 52.8545 3.80304 52.0005 2.94901C51.1465 2.09497 50.0836 1.47955 48.9178 1.16402C44.6497 0 27.4721 0 27.4721 0C27.4721 0 10.2936 0.0352343 6.02555 1.19926C4.8597 1.5148 3.79685 2.13025 2.94285 2.98433C2.08885 3.83841 1.47349 4.90131 1.15805 6.06719C-0.132947 13.6507 -0.633748 25.2063 1.1935 32.4865C1.50897 33.6524 2.12434 34.7152 2.97834 35.5693C3.83235 36.4233 4.89517 37.0387 6.061 37.3542C10.3291 38.5183 27.5071 38.5183 27.5071 38.5183C27.5071 38.5183 44.685 38.5183 48.9528 37.3542C50.1187 37.0388 51.1816 36.4233 52.0356 35.5693C52.8897 34.7153 53.5051 33.6524 53.8205 32.4865C55.1822 24.8922 55.6018 13.3437 53.7853 6.03174Z" fill="#FF0000"/>
<path d="M22.0045 27.5129L36.2547 19.259L22.0045 11.0052V27.5129Z" fill="white"/>
</g>
<defs>
<clipPath id="clip0_16_64">
<rect width="55" height="38.6719" fill="white"/>
</clipPath>
</defs>
</svg>
